<svg xmlns="http://www.w3.org/2000/svg" viewBox="0 0 64 64" width="64" height="64">
  <defs>
    <linearGradient id="g" x1="0%" y1="0%" x2="100%" y2="100%">
      <stop offset="0%" style="stop-color:#FF6A00"/>
      <stop offset="100%" style="stop-color:#FF3C00"/>
    </linearGradient>
    <linearGradient id="plate" x1="0%" y1="0%" x2="100%" y2="100%">
      <stop offset="0%" style="stop-color:#1a1a2e"/>
      <stop offset="100%" style="stop-color:#0d0d1a"/>
    </linearGradient>
  </defs>

  <!-- Background circle -->
  <circle cx="32" cy="32" r="32" fill="url(#plate)"/>

  <!-- Orange arc/plate ring -->
  <circle cx="32" cy="32" r="28" fill="none" stroke="url(#g)" stroke-width="3" opacity="0.6"/>

  <!-- UB monogram -->
  <!-- U -->
  <path d="M14 18 L14 36 Q14 46 24 46 Q34 46 34 36 L34 18" 
        fill="none" stroke="url(#g)" stroke-width="5.5" 
        stroke-linecap="round" stroke-linejoin="round"/>
  <!-- B -->
  <path d="M38 18 L38 46 M38 18 L46 18 Q52 18 52 25 Q52 32 38 32 M38 32 L46 32 Q53 32 53 39 Q53 46 46 46 L38 46" 
        fill="none" stroke="#ffffff" stroke-width="4.5" 
        stroke-linecap="round" stroke-linejoin="round"/>

  <!-- Small dot accent -->
  <circle cx="32" cy="58" r="2" fill="url(#g)"/>
</svg>
